<svg xmlns="http://www.w3.org/2000/svg" width="32" height="32" viewBox="0 0 32 32">
    <g fill="none" fill-rule="evenodd">
        <g fill="#00E284" fill-rule="nonzero">
            <g>
                <path d="M16 0C7.163 0 0 7.163 0 16s7.163 16 16 16 16-7.163 16-16S24.837 0 16 0zm0 29.778C8.39 29.778 2.222 23.609 2.222 16 2.222 8.39 8.391 2.222 16 2.222c7.61 0 13.778 6.169 13.778 13.778 0 7.61-6.169 13.778-13.778 13.778zM16 0C7.163 0 0 7.163 0 16s7.163 16 16 16 16-7.163 16-16S24.837 0 16 0zm0 29.778C8.39 29.778 2.222 23.609 2.222 16 2.222 8.39 8.391 2.222 16 2.222c7.61 0 13.778 6.169 13.778 13.778 0 7.61-6.169 13.778-13.778 13.778zm-.465-9.157l-1.16 1.157-5.486-5.475 1.51-1.506 3.977 3.97 7.226-7.211 1.51 1.506-7.577 7.56z" transform="translate(-180 -245) translate(180 245)"/>
            </g>
        </g>
    </g>
</svg>
