<svg xmlns="http://www.w3.org/2000/svg" width="22" height="22" viewBox="0 0 22 22">
    <path fill="#373C43" d="M2.415 0C1.09 0 0 1.162 0 2.573v16.294c0 1.252.971 2.287 2.146 2.287h17.708c1.175 0 2.146-1.035 2.146-2.287V5.717c0-1.252-.971-2.287-2.146-2.287H18.78V.858c0-.45-.383-.858-.804-.858H2.415zm0 1.715H17.17V3.43H2.415c-.46 0-.805-.367-.805-.857s.345-.858.805-.858zM1.61 4.994c.252.096.523.152.805.152h17.439c.31 0 .536.24.536.571V8.29h-6.975c-.878 0-1.61.78-1.61 1.715v4.574c0 .935.732 1.715 1.61 1.715h6.975v2.573c0 .332-.225.572-.536.572H2.146c-.31 0-.536-.24-.536-.572V4.994zm11.805 5.011h6.975v4.574h-6.975v-4.574zm2.146.858c-.733 0-1.341.648-1.341 1.43 0 .78.608 1.428 1.341 1.428s1.341-.648 1.341-1.429c0-.78-.608-1.43-1.341-1.43z"/>
</svg>
