<svg xmlns="http://www.w3.org/2000/svg" width="20" height="18" viewBox="0 0 20 18">
    <path fill="#373C43" d="M13.562 3.296c0 1.5.997 2.746 2.326 3.148v1.584H2.326V11.6C.976 11.979 0 13.246 0 14.746-.02 16.542 1.433 18 3.2 18c1.765 0 3.219-1.458 3.219-3.275 0-1.5-.997-2.746-2.326-3.148V9.782h13.582V6.423C19.024 6.043 20 4.775 20 3.275 20 1.479 18.567 0 16.78 0c-1.764.042-3.218 1.5-3.218 3.296zm-8.91 11.45c0 .824-.644 1.48-1.453 1.48-.81 0-1.454-.656-1.454-1.48 0-.823.644-1.478 1.454-1.478.81-.022 1.453.655 1.453 1.478zm13.583-11.45c0 .824-.644 1.479-1.454 1.479-.81 0-1.454-.655-1.454-1.48 0-.823.644-1.478 1.454-1.478.81 0 1.454.655 1.454 1.479z"/>
</svg>
