<svg xmlns="http://www.w3.org/2000/svg" width="25" height="16" viewBox="0 0 25 16">
    <g fill="none" fill-rule="evenodd">
        <path fill="#373C43" fill-rule="nonzero" d="M23.456 8.174c-.049-.1-4.585-6.18-10.956-6.18-6.37 0-10.907 6.08-10.956 6.18L0 6.928C.193 6.68 5.164 0 12.5 0S24.807 6.68 25 6.928l-1.544 1.246zm-5.502 2.243c0-3.09-2.413-5.582-5.406-5.582-2.992 0-5.405 2.492-5.405 5.582S9.556 16 12.548 16c2.944 0 5.357-2.492 5.406-5.583zm-1.93 0c0 1.994-1.593 3.59-3.476 3.59-1.93 0-3.475-1.646-3.475-3.59 0-1.993 1.545-3.588 3.475-3.588 1.883 0 3.475 1.595 3.475 3.588z"/>
        <path stroke="#373C43" stroke-linecap="square" stroke-width="2" d="M2.5 1.5L17 14"/>
    </g>
</svg>
