<svg xmlns="http://www.w3.org/2000/svg" width="24" height="25" viewBox="0 0 24 25">
    <g fill="#373C43">
        <path d="M23.773 8.21l-2.404-4.033c-.161-.307-.44-.535-.77-.633-.332-.098-.69-.057-.99.113L17.362 4.7c-.444-.304-.91-.573-1.397-.804l-.23-2.53v-.085C15.618.63 15.059.156 14.4.145H9.712C9.01.143 8.424.689 8.377 1.393L8.15 3.896c-.492.227-.963.496-1.408.804L4.463 3.647l-.037-.016c-.633-.26-1.36-.015-1.707.576L.398 8.226C.044 8.838.206 9.62.775 10.04l2.048 1.463c-.067.543-.067 1.093 0 1.637L.686 14.603l-.029.021c-.573.413-.742 1.195-.39 1.809l2.35 4.04c.166.29.43.512.746.622.337.112.706.075 1.015-.102l2.26-1.042c.444.303.911.572 1.397.803l.23 2.53v.085c.118.65.677 1.126 1.335 1.137h4.674c.704.001 1.288-.545 1.336-1.25l.227-2.502c.491-.227.962-.496 1.408-.803l2.28 1.053.038.016c.633.26 1.36.014 1.707-.576l2.321-4.02c.352-.602.201-1.373-.352-1.797l-1.91-1.46c.07-.554.07-1.114 0-1.667l2.067-1.474c.573-.418.735-1.204.377-1.816zm-4.17 2.548l.07.495c.057.355.088.713.093 1.072-.008.36-.042.718-.101 1.072l-.067.469 2.519 1.942-2.118 3.647-2.968-1.37-.387.32c-.57.442-1.2.803-1.87 1.071l-.438.19-.294 3.232H9.838l-.294-3.231-.438-.19c-.673-.286-1.31-.653-1.894-1.094l-.382-.287-2.938 1.359-2.126-3.647 2.775-1.902-.064-.51c-.06-.353-.094-.712-.102-1.07.008-.36.042-.718.102-1.073l.064-.498L1.87 8.842 3.985 5.19l2.96 1.374.387-.318c.57-.443 1.2-.804 1.87-1.072l.438-.19.294-3.232h4.223l.294 3.232.438.19c.675.288 1.313.657 1.899 1.101l.382.287L20.108 5.2l2.167 3.64-2.672 1.917z"/>
        <path d="M12.02 8.038c-2.36 0-4.274 1.92-4.274 4.287 0 2.368 1.914 4.287 4.274 4.287 2.36 0 4.274-1.92 4.274-4.287.013-1.14-.433-2.239-1.238-3.046-.804-.806-1.899-1.254-3.036-1.24zm0 6.966c-1.475 0-2.671-1.2-2.671-2.679 0-1.48 1.196-2.68 2.671-2.68 1.475 0 2.671 1.2 2.671 2.68.009.713-.27 1.4-.773 1.904-.502.505-1.187.784-1.898.775z"/>
    </g>
</svg>
