<svg xmlns="http://www.w3.org/2000/svg" width="30" height="30" viewBox="0 0 30 30">
    <g fill="none" fill-rule="evenodd">
        <g>
            <g transform="translate(-20 -428) translate(20 428)">
                <circle cx="15" cy="15" r="13" fill="#DBEDEF"/>
                <g fill="#009FB1" fill-rule="nonzero">
                    <path d="M1.326 0C.603 0 0 .596 0 1.311v13.542c0 .715.603 1.311 1.326 1.311h1.88l-.048 1.598c0 .286.169.524.41.62.24.095.53.047.723-.12l.94-.81.94.81c.12.12.29.167.458.167.097 0 .193-.024.265-.048.265-.119.41-.357.41-.643l-.048-1.598h4.29c.724 0 1.327-.596 1.327-1.31V4.958c0-.167-.073-.31-.193-.43L8.003.168C7.883.072 7.738 0 7.593 0H1.326zM5.23 13.78c-.892 0-1.615-.715-1.615-1.597s.723-1.598 1.615-1.598 1.615.716 1.615 1.598c0 .882-.723 1.597-1.615 1.597zm.458 2.503c-.265-.238-.65-.238-.916 0l-.386.334.048-1.764c.242.071.507.12.772.12s.53-.049.795-.12l.049 1.764-.362-.334zM8.196 1.98l2.555 2.384H8.196V1.979zm3.471 3.576v9.298c0 .071-.048.12-.12.12H7.232l-.024-.811c.53-.501.843-1.216.843-1.98 0-1.525-1.253-2.789-2.82-2.789s-2.82 1.264-2.82 2.79c0 .787.337 1.478.843 2.002l-.024.811H1.326c-.072 0-.12-.048-.12-.12V1.312c0-.071.048-.119.12-.119H6.99v3.767c0 .334.265.596.602.596h4.074z" transform="translate(9 6)"/>
                    <path d="M2.124 3.845H5.416V4.8950000000000005H2.124zM2.124 6.176H7.541V7.226H2.124z" transform="translate(9 6)"/>
                </g>
            </g>
        </g>
    </g>
</svg>
