<svg xmlns="http://www.w3.org/2000/svg" width="16" height="20" viewBox="0 0 16 20">
    <g fill="#FFF">
        <path d="M7.9 0C6.415.006 4.993.56 3.948 1.542c-1.046.981-1.63 2.309-1.623 3.69v2.256H0v12.326h15.8V7.488h-2.325V5.233c.007-1.382-.577-2.71-1.623-3.69C10.807.56 9.385.005 7.9 0zM3.825 5.233c0-2.094 1.824-3.791 4.075-3.791 2.25 0 4.075 1.697 4.075 3.79v2.256h-8.15V5.233zM14.3 18.419H1.5V8.884h12.8v9.535z"/>
        <path d="M7.1 15.28v1.813h1.5v-1.814c.668-.269 1.1-.881 1.1-1.558 0-.615-.353-1.183-.925-1.49-.572-.308-1.278-.308-1.85 0-.572.307-.925.875-.925 1.49 0 .677.432 1.29 1.1 1.558zm.75-1.908c.197.012.35.165.35.349 0 .18-.157.326-.35.326-.193 0-.35-.146-.35-.326 0-.184.153-.337.35-.349z"/>
    </g>
</svg>
