<svg xmlns="http://www.w3.org/2000/svg" xmlns:xlink="http://www.w3.org/1999/xlink" width="466" height="317" viewBox="0 0 466 317">
    <defs>
        <path id="p8xnvjcpqi" d="M.244 1.24c0 .605.491 1.096 1.097 1.096.607 0 1.098-.49 1.098-1.097C2.44.634 1.948.143 1.341.143.735.143.244.633.244 1.239"/>
        <path id="xh8aucrxpk" d="M.244 1.206c0 .606.491 1.097 1.097 1.097.607 0 1.098-.491 1.098-1.097S1.948.109 1.341.109C.735.109.244.6.244 1.206"/>
        <path id="ezo8fejlkm" d="M.244 1.172c0 .606.491 1.098 1.097 1.098.607 0 1.098-.492 1.098-1.098C2.44.566 1.948.075 1.341.075.735.075.244.566.244 1.172"/>
        <path id="7lsfelr1uo" d="M.244 1.138c0 .606.491 1.098 1.097 1.098.607 0 1.098-.492 1.098-1.098C2.44.533 1.948.042 1.341.042.735.042.244.532.244 1.138"/>
        <path id="qhhck7yiuq" d="M.464 1.24c0 .605.615 1.096 1.373 1.096s1.372-.49 1.372-1.097C3.21.634 2.595.143 1.837.143 1.079.143.464.633.464 1.239"/>
        <path id="zqawxlgsus" d="M.464 1.206c0 .606.615 1.097 1.373 1.097s1.372-.491 1.372-1.097S2.595.109 1.837.109C1.079.109.464.6.464 1.206"/>
        <path id="s5xdj4j1ku" d="M.464 1.172c0 .606.615 1.098 1.373 1.098s1.372-.492 1.372-1.098C3.21.566 2.595.075 1.837.075 1.079.075.464.566.464 1.172"/>
        <path id="wkygc8fa6w" d="M.464 1.138c0 .606.615 1.098 1.373 1.098s1.372-.492 1.372-1.098C3.21.533 2.595.042 1.837.042 1.079.042.464.532.464 1.138"/>
        <path id="jsqj4twkgy" d="M.007 1.24c0 .605.491 1.096 1.098 1.096.606 0 1.098-.49 1.098-1.097C2.203.634 1.71.143 1.105.143.498.143.007.633.007 1.239"/>
        <path id="graa8un78A" d="M.007 1.206c0 .606.491 1.097 1.098 1.097.606 0 1.098-.491 1.098-1.097S1.71.109 1.105.109C.498.109.007.6.007 1.206"/>
        <path id="ibsk5ynquC" d="M.007 1.172c0 .606.491 1.098 1.098 1.098.606 0 1.098-.492 1.098-1.098C2.203.566 1.71.075 1.105.075.498.075.007.566.007 1.172"/>
        <path id="tg2wi5kjfE" d="M.007 1.138c0 .606.491 1.098 1.098 1.098.606 0 1.098-.492 1.098-1.098C2.203.533 1.71.042 1.105.042.498.042.007.532.007 1.138"/>
        <path id="e77omcn9aG" d="M.08.653c.07 12.92 10.107 23.37 22.48 23.37 12.372 0 22.408-10.45 22.478-23.37H.08z"/>
        <rect id="2yaoudwcob" width="458" height="312" x="0" y="0" rx="14"/>
        <rect id="zxb7aec18d" width="458" height="312" x="0" y="0" rx="14"/>
        <rect id="2za31899we" width="458" height="312" x="0" y="0" rx="14"/>
        <rect id="ehy79cg9lf" width="458" height="312" x="0" y="0" rx="14"/>
        <filter id="1tlmhyxlia" width="105.2%" height="108%" x="-2.6%" y="-3.9%" filterUnits="objectBoundingBox">
            <feOffset dy="2" in="SourceAlpha" result="shadowOffsetOuter1"/>
            <feGaussianBlur in="shadowOffsetOuter1" result="shadowBlurOuter1" stdDeviation="2"/>
            <feColorMatrix in="shadowBlurOuter1" result="shadowMatrixOuter1" values="0 0 0 0 0.645097373 0 0 0 0 0.645097373 0 0 0 0 0.645097373 0 0 0 0.5 0"/>
            <feMerge>
                <feMergeNode in="shadowMatrixOuter1"/>
                <feMergeNode in="SourceGraphic"/>
            </feMerge>
        </filter>
        <filter id="jlrh119iag" width="103.1%" height="104.5%" x="-1.5%" y="-1.6%" filterUnits="objectBoundingBox">
            <feOffset dy="2" in="SourceAlpha" result="shadowOffsetOuter1"/>
            <feGaussianBlur in="shadowOffsetOuter1" result="shadowBlurOuter1" stdDeviation="2"/>
            <feColorMatrix in="shadowBlurOuter1" values="0 0 0 0 0 0 0 0 0 0 0 0 0 0 0 0 0 0 0.5 0"/>
        </filter>
    </defs>
    <g fill="none" fill-rule="evenodd">
        <g>
            <g>
                <g>
                    <g>
                        <g>
                            <g transform="translate(-332 -221) translate(336 223)">
                                <g fill="#FFF" filter="url(#1tlmhyxlia)">
                                    <g>
                                        <g>
                                            <rect width="458" height="308.351" rx="18"/>
                                        </g>
                                    </g>
                                </g>
                                <mask id="y66usd45dc" fill="#fff">
                                    <use xlink:href="#2yaoudwcob"/>
                                </mask>
                                <use fill="#FFF" xlink:href="#2yaoudwcob"/>
                                <g mask="url(#y66usd45dc)">
                                    <use fill="#FFF" xlink:href="#zxb7aec18d"/>
                                    <use fill="#FFF" xlink:href="#2za31899we"/>
                                    <mask id="gdii109idh" fill="#fff">
                                        <use xlink:href="#ehy79cg9lf"/>
                                    </mask>
                                    <g>
                                        <use fill="#000" filter="url(#jlrh119iag)" xlink:href="#ehy79cg9lf"/>
                                        <use fill="#FFF" xlink:href="#ehy79cg9lf"/>
                                    </g>
                                    <g mask="url(#gdii109idh)">
                                        <g>
                                            <g>
                                                <path fill="#FB963C" d="M112.815 107.101c1.37 0 2.731-.032 4.09-.08V.21H.204C2.55 59.635 52.065 107.1 112.815 107.1" transform="translate(-11.242 -30.76) translate(354.522 29.53)"/>
                                                <path fill="#FEEAD8" d="M89.502 119.424c-.087 0-.168-.01-.25-.025-.08-.015-.162-.04-.237-.071-.077-.03-.153-.07-.22-.115-.07-.045-.136-.1-.192-.156-.238-.235-.37-.555-.37-.887 0-.33.132-.651.37-.887.056-.055.122-.11.193-.155.066-.045.142-.085.219-.116.075-.03.157-.055.238-.07.41-.085.848.05 1.142.34.239.237.37.557.37.888 0 .332-.131.652-.37.887-.233.231-.564.367-.893.367M88.227 128.187c0-.691.568-1.253 1.27-1.253.706 0 1.268.562 1.268 1.253 0 .692-.562 1.253-1.268 1.253-.702 0-1.27-.56-1.27-1.253m0 10.017c0-.691.568-1.253 1.27-1.253.706 0 1.268.562 1.268 1.253 0 .692-.562 1.254-1.268 1.254-.702 0-1.27-.562-1.27-1.254m0 10.023c0-.697.568-1.26 1.27-1.26.706 0 1.268.563 1.268 1.26 0 .692-.562 1.253-1.268 1.253-.702 0-1.27-.561-1.27-1.253m0 10.017c0-.693.568-1.254 1.27-1.254.706 0 1.268.561 1.268 1.254 0 .69-.562 1.252-1.268 1.252-.702 0-1.27-.561-1.27-1.252m0 10.017c0-.693.568-1.254 1.27-1.254.706 0 1.268.561 1.268 1.254 0 .69-.562 1.253-1.268 1.253-.702 0-1.27-.562-1.27-1.253m0 10.016c0-.692.568-1.254 1.27-1.254.706 0 1.268.562 1.268 1.254 0 .691-.562 1.254-1.268 1.254-.702 0-1.27-.563-1.27-1.254m0 10.017c0-.692.568-1.254 1.27-1.254.706 0 1.268.562 1.268 1.254s-.562 1.254-1.268 1.254c-.702 0-1.27-.562-1.27-1.254M89.497 199.569c-.33 0-.66-.136-.894-.37-.06-.056-.112-.121-.157-.19-.046-.066-.087-.141-.117-.217-.035-.075-.055-.156-.076-.235-.015-.08-.02-.16-.02-.241 0-.331.132-.657.37-.887.056-.06.122-.11.193-.155.066-.047.142-.087.219-.117.075-.035.157-.055.238-.074.41-.08.848.054 1.143.346.238.23.37.556.37.887 0 .08-.005.16-.02.241-.02.08-.04.16-.076.235-.032.076-.071.151-.118.216-.045.07-.096.135-.156.191-.235.234-.565.37-.9.37" transform="translate(-11.242 -30.76) translate(354.522 29.53)"/>
                                            </g>
                                            <g>
                                                <path fill="#FEEAD8" d="M12.488 33.845L6.503 42.299.518 33.845zM12.488 49.997L6.503 58.451.518 49.997zM12.488 17.04L6.503 25.494.518 17.04zM12.488.236L6.503 8.69.518.236zM106.634 51.951c-.545 0-.988-.437-.988-.977 0-.539.443-.977.988-.977.546 0 .988.438.988.977 0 .54-.442.977-.988.977M100.46 51.951c-.546 0-.988-.437-.988-.977 0-.539.442-.977.988-.977s.987.438.987.977c0 .54-.441.977-.987.977M94.286 51.951c-.546 0-.989-.437-.989-.977 0-.539.443-.977.989-.977.545 0 .987.438.987.977 0 .54-.442.977-.987.977M88.11 51.951c-.545 0-.987-.437-.987-.977 0-.539.442-.977.988-.977.545 0 .988.438.988.977 0 .54-.443.977-.988.977M81.936 51.951c-.545 0-.987-.437-.987-.977 0-.539.442-.977.987-.977.546 0 .988.438.988.977 0 .54-.442.977-.988.977M75.762 51.951c-.546 0-.988-.437-.988-.977 0-.539.442-.977.988-.977.545 0 .988.438.988.977 0 .54-.443.977-.988.977M69.587 51.951c-.545 0-.987-.437-.987-.977 0-.539.442-.977.987-.977.546 0 .989.438.989.977 0 .54-.443.977-.989.977M106.634 57.324c-.545 0-.988-.437-.988-.976 0-.54.443-.977.988-.977.546 0 .988.437.988.977s-.442.976-.988.976M100.46 57.324c-.546 0-.988-.437-.988-.976 0-.54.442-.977.988-.977s.987.437.987.977-.441.976-.987.976M94.286 57.324c-.546 0-.989-.437-.989-.976 0-.54.443-.977.989-.977.545 0 .987.437.987.977s-.442.976-.987.976M88.11 57.324c-.545 0-.987-.437-.987-.976 0-.54.442-.977.988-.977.545 0 .988.437.988.977s-.443.976-.988.976M81.936 57.324c-.545 0-.987-.437-.987-.976 0-.54.442-.977.987-.977.546 0 .988.437.988.977s-.442.976-.988.976M75.762 57.324c-.546 0-.988-.437-.988-.976 0-.54.442-.977.988-.977.545 0 .988.437.988.977s-.443.976-.988.976M69.587 57.324c-.545 0-.987-.437-.987-.976 0-.54.442-.977.987-.977.546 0 .989.437.989.977s-.443.976-.989.976M106.634 62.698c-.545 0-.988-.438-.988-.977 0-.54.443-.978.988-.978.546 0 .988.439.988.978 0 .539-.442.977-.988.977M100.46 62.698c-.546 0-.988-.438-.988-.977 0-.54.442-.978.988-.978s.987.439.987.978c0 .539-.441.977-.987.977M94.286 62.698c-.546 0-.989-.438-.989-.977 0-.54.443-.978.989-.978.545 0 .987.439.987.978 0 .539-.442.977-.987.977M88.11 62.698c-.545 0-.987-.438-.987-.977 0-.54.442-.978.988-.978.545 0 .988.439.988.978 0 .539-.443.977-.988.977M81.936 62.698c-.545 0-.987-.438-.987-.977 0-.54.442-.978.987-.978.546 0 .988.439.988.978 0 .539-.442.977-.988.977M75.762 62.698c-.546 0-.988-.438-.988-.977 0-.54.442-.978.988-.978.545 0 .988.439.988.978 0 .539-.443.977-.988.977M69.587 62.698c-.545 0-.987-.438-.987-.977 0-.54.442-.978.987-.978.546 0 .989.439.989.978 0 .539-.443.977-.989.977" transform="translate(-11.242 -30.76) translate(59.258 252.238)"/>
                                            </g>
                                            <g transform="translate(-11.242 -30.76) translate(99.887 33.222)">
                                                <mask id="r1y3uovvyj" fill="#fff">
                                                    <use xlink:href="#p8xnvjcpqi"/>
                                                </mask>
                                                <path d="M.244 1.24c0 .605.491 1.096 1.097 1.096.607 0 1.098-.49 1.098-1.097C2.44.634 1.948.143 1.341.143.735.143.244.633.244 1.239" mask="url(#r1y3uovvyj)"/>
                                            </g>
                                            <g transform="translate(-11.242 -30.76) translate(99.887 44.295)">
                                                <mask id="cdkhlda6tl" fill="#fff">
                                                    <use xlink:href="#xh8aucrxpk"/>
                                                </mask>
                                                <path d="M.244 1.206c0 .606.491 1.097 1.097 1.097.607 0 1.098-.491 1.098-1.097S1.948.109 1.341.109C.735.109.244.6.244 1.206" mask="url(#cdkhlda6tl)"/>
                                            </g>
                                            <g transform="translate(-11.242 -30.76) translate(99.887 54.139)">
                                                <mask id="n1pawweyyn" fill="#fff">
                                                    <use xlink:href="#ezo8fejlkm"/>
                                                </mask>
                                                <path d="M.244 1.172c0 .606.491 1.098 1.097 1.098.607 0 1.098-.492 1.098-1.098C2.44.566 1.948.075 1.341.075.735.075.244.566.244 1.172" mask="url(#n1pawweyyn)"/>
                                            </g>
                                            <g transform="translate(-11.242 -30.76) translate(99.887 67.674)">
                                                <mask id="oar6p64vyp" fill="#fff">
                                                    <use xlink:href="#7lsfelr1uo"/>
                                                </mask>
                                                <path d="M.244 1.138c0 .606.491 1.098 1.097 1.098.607 0 1.098-.492 1.098-1.098C2.44.533 1.948.042 1.341.042.735.042.244.532.244 1.138" mask="url(#oar6p64vyp)"/>
                                            </g>
                                            <g transform="translate(-11.242 -30.76) translate(108.505 33.222)">
                                                <mask id="skceby3igr" fill="#fff">
                                                    <use xlink:href="#qhhck7yiuq"/>
                                                </mask>
                                                <path d="M.464 1.24c0 .605.615 1.096 1.373 1.096s1.372-.49 1.372-1.097C3.21.634 2.595.143 1.837.143 1.079.143.464.633.464 1.239" mask="url(#skceby3igr)"/>
                                            </g>
                                            <g transform="translate(-11.242 -30.76) translate(108.505 44.295)">
                                                <mask id="27lq7d21mt" fill="#fff">
                                                    <use xlink:href="#zqawxlgsus"/>
                                                </mask>
                                                <path d="M.464 1.206c0 .606.615 1.097 1.373 1.097s1.372-.491 1.372-1.097S2.595.109 1.837.109C1.079.109.464.6.464 1.206" mask="url(#27lq7d21mt)"/>
                                            </g>
                                            <g transform="translate(-11.242 -30.76) translate(108.505 54.139)">
                                                <mask id="u44ai2ajdv" fill="#fff">
                                                    <use xlink:href="#s5xdj4j1ku"/>
                                                </mask>
                                                <path d="M.464 1.172c0 .606.615 1.098 1.373 1.098s1.372-.492 1.372-1.098C3.21.566 2.595.075 1.837.075 1.079.075.464.566.464 1.172" mask="url(#u44ai2ajdv)"/>
                                            </g>
                                            <g transform="translate(-11.242 -30.76) translate(108.505 67.674)">
                                                <mask id="vzjaspxcpx" fill="#fff">
                                                    <use xlink:href="#wkygc8fa6w"/>
                                                </mask>
                                                <path d="M.464 1.138c0 .606.615 1.098 1.373 1.098s1.372-.492 1.372-1.098C3.21.533 2.595.042 1.837.042 1.079.042.464.532.464 1.138" mask="url(#vzjaspxcpx)"/>
                                            </g>
                                            <g transform="translate(-11.242 -30.76) translate(120.817 33.222)">
                                                <mask id="zhl5lnsinz" fill="#fff">
                                                    <use xlink:href="#jsqj4twkgy"/>
                                                </mask>
                                                <path d="M.007 1.24c0 .605.491 1.096 1.098 1.096.606 0 1.098-.49 1.098-1.097C2.203.634 1.71.143 1.105.143.498.143.007.633.007 1.239" mask="url(#zhl5lnsinz)"/>
                                            </g>
                                            <g transform="translate(-11.242 -30.76) translate(120.817 44.295)">
                                                <mask id="cddmleu15B" fill="#fff">
                                                    <use xlink:href="#graa8un78A"/>
                                                </mask>
                                                <path d="M.007 1.206c0 .606.491 1.097 1.098 1.097.606 0 1.098-.491 1.098-1.097S1.71.109 1.105.109C.498.109.007.6.007 1.206" mask="url(#cddmleu15B)"/>
                                            </g>
                                            <g transform="translate(-11.242 -30.76) translate(120.817 54.139)">
                                                <mask id="l717eek51D" fill="#fff">
                                                    <use xlink:href="#ibsk5ynquC"/>
                                                </mask>
                                                <path d="M.007 1.172c0 .606.491 1.098 1.098 1.098.606 0 1.098-.492 1.098-1.098C2.203.566 1.71.075 1.105.075.498.075.007.566.007 1.172" mask="url(#l717eek51D)"/>
                                            </g>
                                            <g transform="translate(-11.242 -30.76) translate(120.817 67.674)">
                                                <mask id="dpxyfv9fgF" fill="#fff">
                                                    <use xlink:href="#tg2wi5kjfE"/>
                                                </mask>
                                                <path d="M.007 1.138c0 .606.491 1.098 1.098 1.098.606 0 1.098-.492 1.098-1.098C2.203.533 1.71.042 1.105.042.498.042.007.532.007 1.138" mask="url(#dpxyfv9fgF)"/>
                                            </g>
                                            <g>
                                                <path fill="#FEEAD8" d="M437.921 303.182L437.653 302.913 480.771 259.57 481.039 259.838z" transform="translate(-11.242 -30.76) translate(.885 1.953)"/>
                                                <g fill="#FEEAD8">
                                                    <path d="M0.964 69.363L0.697 69.094 69.134 0.3 69.402 0.568z" transform="translate(-11.242 -30.76) translate(.885 1.953) translate(421.96 233.819)"/>
                                                </g>
                                                <path fill="#FEEAD8" d="M31.418 147.81c-.04-.703.493-1.295 1.188-1.336.695-.035 1.284.501 1.324 1.194.035.699-.493 1.296-1.188 1.338h-.07c-.665 0-1.22-.522-1.254-1.196zm6.163 1.296c-.69-.07-1.198-.688-1.133-1.382.066-.693.685-1.204 1.375-1.138.69.065 1.198.683 1.133 1.381-.066.653-.615 1.145-1.254 1.145-.04 0-.08 0-.121-.006zm-11.129-.455c-.14-.684.298-1.357.977-1.499.68-.14 1.345.3 1.491.982.14.684-.297 1.357-.976 1.499-.087.015-.173.025-.257.025-.585 0-1.11-.41-1.235-1.007zm15.898 1.286c-.675-.172-1.083-.86-.912-1.534.171-.679.856-1.088 1.53-.916.671.172 1.079.86.913 1.539-.146.572-.66.951-1.224.951-.1 0-.206-.01-.307-.04zm-20.671.308c-.247-.653.086-1.381.735-1.63.65-.242 1.375.086 1.622.739.241.658-.086 1.388-.735 1.63-.147.056-.298.081-.444.081-.508 0-.987-.313-1.178-.82zm25.253 1.246c-.64-.274-.937-1.018-.665-1.66.273-.644 1.012-.943 1.652-.669.64.274.937 1.017.665 1.66-.202.482-.67.77-1.158.77-.166 0-.333-.03-.494-.101zm-29.73 1.057c-.342-.607-.125-1.376.479-1.72.61-.345 1.374-.127 1.717.486.342.606.126 1.376-.483 1.72-.192.112-.403.162-.615.162-.438 0-.866-.232-1.098-.648zm34.025 1.18c-.589-.365-.77-1.15-.407-1.742.367-.592 1.142-.779 1.737-.41.589.37.77 1.15.408 1.742-.242.39-.655.602-1.073.602-.226 0-.458-.06-.665-.192zm-38.103 1.782c-.429-.547-.333-1.342.216-1.777.549-.43 1.34-.329 1.768.222.428.547.326 1.347-.217 1.772-.232.182-.503.269-.776.269-.372 0-.745-.167-.991-.486zm42.016 1.082c-.529-.45-.594-1.25-.141-1.78.448-.532 1.244-.598 1.772-.143.53.451.595 1.25.141 1.782-.247.294-.599.446-.956.446-.287 0-.58-.097-.816-.305zm-45.607 2.466c-.508-.481-.529-1.28-.05-1.792.473-.506 1.27-.532 1.777-.05.503.48.529 1.28.051 1.791-.247.264-.579.395-.916.395-.308 0-.62-.116-.862-.344zm-3.02 4.05c-.57-.4-.716-1.19-.318-1.762.392-.578 1.178-.719 1.752-.325.57.4.715 1.19.318 1.762-.242.36-.64.547-1.038.547-.247 0-.493-.071-.715-.223zm-2.373 4.46c-.624-.305-.886-1.065-.584-1.692.307-.627 1.058-.89 1.687-.582.624.304.882 1.063.579 1.69-.217.452-.665.715-1.133.715-.187 0-.373-.046-.549-.132zm-1.672 4.777c-.665-.207-1.037-.916-.83-1.584.206-.668.91-1.043 1.575-.835.66.207 1.033.916.83 1.585-.17.54-.668.89-1.202.89-.126 0-.252-.02-.373-.056zm-.926 4.971c-.69-.101-1.164-.744-1.063-1.438.1-.688.745-1.17 1.43-1.063.69.102 1.164.744 1.063 1.433-.095.632-.63 1.084-1.244 1.084-.06 0-.126-.006-.186-.016zm-1.435 3.797c0-.699.558-1.266 1.253-1.271.695-.005 1.264.561 1.264 1.26.006.7-.559 1.271-1.253 1.271h-.005c-.69 0-1.254-.562-1.26-1.26zm.413 5.228c-.112-.688.362-1.335 1.046-1.448.69-.106 1.33.37 1.441 1.058.106.694-.363 1.337-1.052 1.449-.066.009-.131.014-.196.014-.61 0-1.144-.45-1.24-1.073zm1.193 5.107c-.211-.662.156-1.376.82-1.588.66-.208 1.37.161 1.582.824.206.668-.156 1.377-.82 1.59-.127.04-.258.06-.384.06-.533 0-1.026-.343-1.198-.886zm1.953 4.87c-.306-.628-.05-1.387.57-1.696.624-.313 1.38-.055 1.687.573.312.622.055 1.382-.569 1.695-.177.09-.368.131-.559.131-.463 0-.906-.257-1.129-.703zm2.67 4.51c-.398-.572-.262-1.361.307-1.766.569-.4 1.354-.264 1.752.308.398.572.262 1.362-.307 1.767-.217.152-.473.228-.72.228-.398 0-.786-.187-1.032-.537zm3.313 4.05c-.478-.507-.463-1.306.04-1.787.504-.487 1.3-.466 1.778.04.483.502.463 1.302-.036 1.787-.247.233-.558.349-.87.349-.333 0-.665-.127-.912-.39zm3.882 3.508c-.549-.425-.649-1.22-.226-1.776.422-.552 1.213-.66 1.762-.229.554.426.655 1.22.232 1.771-.247.325-.62.497-.997.497-.272 0-.539-.087-.77-.263zm4.372 2.874v.006c-.61-.34-.832-1.11-.494-1.721.332-.613 1.097-.835 1.706-.496.61.333.832 1.103.495 1.716-.227.42-.66.658-1.104.658-.206 0-.412-.056-.603-.163zm28.596.786c-.277-.639.015-1.388.655-1.666v.005c.64-.279 1.379.015 1.656.654.277.642-.015 1.386-.654 1.664-.161.07-.333.106-.499.106-.488 0-.952-.283-1.158-.763zm-23.843 1.396c-.655-.243-.992-.967-.75-1.624.237-.658.962-.993 1.615-.755.65.243.988.967.746 1.625-.186.511-.664.83-1.178.83-.147 0-.292-.025-.433-.076zm19.029.07c-.181-.672.222-1.366.896-1.542.675-.178 1.36.227 1.536.905.177.673-.226 1.368-.896 1.544-.11.025-.217.041-.322.041-.56 0-1.068-.375-1.214-.947zm-14.004 1.352c-.68-.135-1.122-.804-.982-1.488.136-.684.8-1.128 1.48-.992.681.137 1.123.805.988 1.489-.12.602-.644 1.017-1.234 1.017-.08 0-.166-.005-.252-.025zm9.019-.632c-.076-.698.428-1.32 1.123-1.392.69-.07 1.309.435 1.38 1.129.07.694-.429 1.315-1.123 1.387-.046.005-.086.01-.132.01-.633 0-1.182-.486-1.248-1.134zm-3.837 1.275c-.695-.035-1.23-.627-1.199-1.326.03-.698.62-1.235 1.315-1.204.695.035 1.234.627 1.203 1.326-.035.673-.59 1.204-1.259 1.204h-.06zM64.028 168.964h.005c-.262-.648.045-1.382.69-1.645.644-.263 1.38.05 1.64.698.263.648-.05 1.383-.694 1.646-.156.065-.312.096-.473.096-.498 0-.967-.304-1.168-.795zm1.47 4.637c-.161-.684.257-1.362.937-1.524.675-.162 1.355.258 1.515.941.156.679-.261 1.362-.936 1.524-.101.02-.197.03-.293.03-.569 0-1.087-.39-1.223-.97zm.75 4.804c-.055-.7.464-1.307 1.153-1.362.695-.057 1.3.466 1.355 1.159.055.698-.464 1.306-1.153 1.362-.036.005-.07.005-.101.005-.65 0-1.203-.501-1.254-1.164zm1.189 6.22c-.695-.05-1.22-.658-1.169-1.352.051-.697.65-1.224 1.345-1.173.695.045 1.218.652 1.168 1.35-.045.664-.599 1.176-1.254 1.176h-.09zm-.922 4.97c-.68-.15-1.108-.829-.952-1.513.157-.678.826-1.108 1.506-.952.68.152 1.103.831.952 1.514-.136.588-.655.987-1.229.987-.09 0-.187-.01-.277-.035zm-1.667 4.779c-.649-.258-.966-.992-.71-1.644.257-.648.988-.967 1.632-.71.65.253.967.993.71 1.64-.196.497-.67.8-1.168.8-.156 0-.312-.025-.464-.086zm-2.371 4.465c-.6-.354-.806-1.129-.454-1.73.353-.604 1.123-.811 1.723-.456.599.349.8 1.128.453 1.73-.232.4-.655.628-1.088.628-.217 0-.433-.055-.634-.172zm-3.017 4.05c-.539-.44-.624-1.236-.186-1.777.438-.547 1.229-.628 1.773-.187.538.434.624 1.234.186 1.776-.252.309-.615.47-.977.47-.281 0-.559-.09-.796-.283z" transform="translate(-11.242 -30.76) translate(.885 1.953)"/>
                                                <path fill="#FAFBFB" d="M412.447 71.767L416.705 71.767 416.705.009 412.447.009zM420.663 71.767L424.92 71.767 424.92.009 420.663.009zM428.878 71.767L433.136 71.767 433.136.009 428.878.009z" transform="translate(-11.242 -30.76) translate(.885 1.953)"/>
                                                <path fill="#FB963C" d="M6.664 26.346v38.86c.427.012.852.032 1.283.032 22.223 0 40.472-17.08 42.481-38.892H6.664z" transform="translate(-11.242 -30.76) translate(.885 1.953)"/>
                                            </g>
                                            <g transform="translate(-11.242 -30.76) translate(333.812 55.37)">
                                                <mask id="75alqkthgH" fill="#fff">
                                                    <use xlink:href="#e77omcn9aG"/>
                                                </mask>
                                                <path d="M.08.653c.07 12.92 10.107 23.37 22.48 23.37 12.372 0 22.408-10.45 22.478-23.37H.08z" mask="url(#75alqkthgH)"/>
                                            </g>
                                        </g>
                                    </g>
                                </g>
                            </g>
                        </g>
                    </g>
                </g>
            </g>
        </g>
    </g>
</svg>
